<svg width="92" height="92" viewBox="0 0 92 92" fill="none" xmlns="http://www.w3.org/2000/svg">
<rect width="92" height="92" rx="25.8049" fill="#FEF3F2"/>
<path d="M53.3333 33.75V32.1833C53.3333 29.9898 53.3333 28.893 52.9064 28.0552C52.5309 27.3182 51.9318 26.7191 51.1948 26.3435C50.357 25.9167 49.2602 25.9167 47.0667 25.9167H43.9333C41.7398 25.9167 40.643 25.9167 39.8052 26.3435C39.0682 26.7191 38.4691 27.3182 38.0936 28.0552C37.6667 28.893 37.6667 29.9898 37.6667 32.1833V33.75M41.5833 44.5208V54.3125M49.4167 44.5208V54.3125M27.875 33.75H63.125M59.2083 33.75V55.6833C59.2083 58.9736 59.2083 60.6188 58.568 61.8755C58.0047 62.981 57.106 63.8797 56.0005 64.443C54.7438 65.0833 53.0986 65.0833 49.8083 65.0833H41.1917C37.9014 65.0833 36.2562 65.0833 34.9995 64.443C33.894 63.8797 32.9953 62.981 32.432 61.8755C31.7917 60.6188 31.7917 58.9736 31.7917 55.6833V33.75" stroke="#D92D20" stroke-width="3" stroke-linecap="round" stroke-linejoin="round"/>
</svg>
