<svg width="22" height="23" viewBox="0 0 22 23" fill="none" xmlns="http://www.w3.org/2000/svg">
<path d="M15.5669 5.2V4.36C15.5669 3.18389 15.5669 2.59583 15.3369 2.14662C15.1345 1.75148 14.8115 1.43022 14.4143 1.22889C13.9627 1 13.3715 1 12.1892 1H10.5003C9.31795 1 8.72678 1 8.27519 1.22889C7.87796 1.43022 7.555 1.75148 7.3526 2.14662C7.1225 2.59583 7.1225 3.18389 7.1225 4.36V5.2M9.23362 10.975V16.225M13.4558 10.975V16.225M1.84473 5.2H20.8447M18.7336 5.2V16.96C18.7336 18.7242 18.7336 19.6062 18.3885 20.2801C18.0849 20.8728 17.6004 21.3547 17.0046 21.6567C16.3272 22 15.4404 22 13.6669 22H9.02251C7.249 22 6.36226 22 5.68487 21.6567C5.08902 21.3547 4.60458 20.8728 4.30098 20.2801C3.95584 19.6062 3.95584 18.7242 3.95584 16.96V5.2" stroke="white" stroke-width="2" stroke-linecap="round" stroke-linejoin="round"/>
</svg>
