<svg width="18" height="22" viewBox="0 0 18 22" fill="none" xmlns="http://www.w3.org/2000/svg">
<path fill-rule="evenodd" clip-rule="evenodd" d="M17.9536 7.33059C17.9536 6.8558 17.7654 6.40045 17.4287 6.06482C16.387 5.02314 12.9305 1.56658 11.8888 0.524901C11.5532 0.188249 11.0978 -3.05176e-05 10.623 -3.05176e-05C9.32349 -3.05176e-05 5.33278 -3.05176e-05 2.86059 -3.05176e-05C2.11463 -3.05176e-05 1.39835 0.296714 0.870353 0.823692C0.343375 1.35169 0.0466309 2.06797 0.0466309 2.81393V19.1861C0.0466309 19.932 0.343375 20.6483 0.870353 21.1763C1.39835 21.7033 2.11463 22 2.86059 22H15.1397C16.694 22 17.9536 20.7404 17.9536 19.1861V7.33059ZM16.4188 7.33059V19.1861C16.4188 19.8921 15.8457 20.4651 15.1397 20.4651H2.86059C2.52087 20.4651 2.1965 20.3301 1.95603 20.0906C1.71659 19.8501 1.58152 19.5258 1.58152 19.1861V2.81393C1.58152 2.47421 1.71659 2.14983 1.95603 1.90937C2.1965 1.66993 2.52087 1.53486 2.86059 1.53486H10.623C10.6906 1.53486 10.756 1.56146 10.8041 1.60955L16.3441 7.14947C16.3921 7.19757 16.4188 7.26305 16.4188 7.33059Z" fill="#344054"/>
<path fill-rule="evenodd" clip-rule="evenodd" d="M10.2793 1.27904V4.86044C10.2793 6.41477 11.5389 7.6744 13.0933 7.6744H16.6747C17.0983 7.6744 17.4421 7.33059 17.4421 6.90696C17.4421 6.48333 17.0983 6.13951 16.6747 6.13951H13.0933C12.3872 6.13951 11.8142 5.56649 11.8142 4.86044V1.27904C11.8142 0.855411 11.4704 0.511597 11.0467 0.511597C10.6231 0.511597 10.2793 0.855411 10.2793 1.27904Z" fill="#344054"/>
<path fill-rule="evenodd" clip-rule="evenodd" d="M8.23267 10.4884V15.6046C8.23267 16.0283 8.57648 16.3721 9.00011 16.3721C9.42374 16.3721 9.76755 16.0283 9.76755 15.6046V10.4884C9.76755 10.0647 9.42374 9.72092 9.00011 9.72092C8.57648 9.72092 8.23267 10.0647 8.23267 10.4884Z" fill="#344054"/>
<path fill-rule="evenodd" clip-rule="evenodd" d="M6.442 13.814H11.5583C11.9819 13.814 12.3257 13.4702 12.3257 13.0465C12.3257 12.6229 11.9819 12.2791 11.5583 12.2791H6.442C6.01838 12.2791 5.67456 12.6229 5.67456 13.0465C5.67456 13.4702 6.01838 13.814 6.442 13.814Z" fill="#344054"/>
</svg>
