<svg width="18" height="22" viewBox="0 0 18 22" fill="none" xmlns="http://www.w3.org/2000/svg">
<path fill-rule="evenodd" clip-rule="evenodd" d="M17.907 7.33062C17.907 6.85583 17.7187 6.40048 17.3821 6.06485C16.3404 5.02317 12.8838 1.56661 11.8422 0.524931C11.5065 0.188279 11.0512 0 10.5764 0C9.27686 0 5.28615 0 2.81396 0C2.068 0 1.35172 0.296745 0.823722 0.823723C0.296745 1.35172 0 2.068 0 2.81396V19.1861C0 19.932 0.296745 20.6483 0.823722 21.1763C1.35172 21.7033 2.068 22 2.81396 22H15.0931C16.6474 22 17.907 20.7404 17.907 19.1861V7.33062ZM16.3721 7.33062V19.1861C16.3721 19.8921 15.7991 20.4652 15.0931 20.4652H2.81396C2.47424 20.4652 2.14986 20.3301 1.9094 20.0906C1.66996 19.8502 1.53489 19.5258 1.53489 19.1861V2.81396C1.53489 2.47424 1.66996 2.14986 1.9094 1.9094C2.14986 1.66996 2.47424 1.53489 2.81396 1.53489H10.5764C10.6439 1.53489 10.7094 1.56149 10.7575 1.60958L16.2974 7.1495C16.3455 7.1976 16.3721 7.26308 16.3721 7.33062Z" fill="white"/>
<path fill-rule="evenodd" clip-rule="evenodd" d="M10.2324 1.27907V4.86047C10.2324 6.4148 11.4921 7.67443 13.0464 7.67443H16.6278C17.0514 7.67443 17.3952 7.33062 17.3952 6.90699C17.3952 6.48336 17.0514 6.13955 16.6278 6.13955H13.0464C12.3403 6.13955 11.7673 5.56652 11.7673 4.86047V1.27907C11.7673 0.855442 11.4235 0.511627 10.9999 0.511627C10.5762 0.511627 10.2324 0.855442 10.2324 1.27907Z" fill="white"/>
<path fill-rule="evenodd" clip-rule="evenodd" d="M8.18604 10.4884V15.6047C8.18604 16.0283 8.52985 16.3721 8.95348 16.3721C9.37711 16.3721 9.72092 16.0283 9.72092 15.6047V10.4884C9.72092 10.0648 9.37711 9.72095 8.95348 9.72095C8.52985 9.72095 8.18604 10.0648 8.18604 10.4884Z" fill="white"/>
<path fill-rule="evenodd" clip-rule="evenodd" d="M6.39537 13.814H11.5117C11.9353 13.814 12.2791 13.4702 12.2791 13.0466C12.2791 12.6229 11.9353 12.2791 11.5117 12.2791H6.39537C5.97174 12.2791 5.62793 12.6229 5.62793 13.0466C5.62793 13.4702 5.97174 13.814 6.39537 13.814Z" fill="white"/>
</svg>
