<svg width="18" height="24" viewBox="0 0 18 24" fill="none" xmlns="http://www.w3.org/2000/svg">
<path d="M9 17C7.6744 16.9984 6.40353 16.4712 5.46619 15.5338C4.52885 14.5965 4.00156 13.3256 4 12V5C4 3.67392 4.52678 2.40215 5.46447 1.46447C6.40215 0.526784 7.67392 0 9 0C10.3261 0 11.5979 0.526784 12.5355 1.46447C13.4732 2.40215 14 3.67392 14 5V12C13.9984 13.3256 13.4712 14.5965 12.5338 15.5338C11.5965 16.4712 10.3256 16.9984 9 17ZM18 12C18 11.7348 17.8946 11.4804 17.7071 11.2929C17.5196 11.1054 17.2652 11 17 11C16.7348 11 16.4804 11.1054 16.2929 11.2929C16.1054 11.4804 16 11.7348 16 12C16 13.8565 15.2625 15.637 13.9497 16.9497C12.637 18.2625 10.8565 19 9 19C7.14348 19 5.36301 18.2625 4.05025 16.9497C2.7375 15.637 2 13.8565 2 12C2 11.7348 1.89464 11.4804 1.70711 11.2929C1.51957 11.1054 1.26522 11 1 11C0.734784 11 0.48043 11.1054 0.292893 11.2929C0.105357 11.4804 0 11.7348 0 12C3.55683e-08 14.387 0.948211 16.6761 2.63604 18.364C4.32387 20.0518 6.61305 21 9 21C11.3869 21 13.6761 20.0518 15.364 18.364C17.0518 16.6761 18 14.387 18 12ZM10 23V20C10 19.7348 9.89464 19.4804 9.70711 19.2929C9.51957 19.1054 9.26522 19 9 19C8.73478 19 8.48043 19.1054 8.29289 19.2929C8.10536 19.4804 8 19.7348 8 20V23C8 23.2652 8.10536 23.5196 8.29289 23.7071C8.48043 23.8946 8.73478 24 9 24C9.26522 24 9.51957 23.8946 9.70711 23.7071C9.89464 23.5196 10 23.2652 10 23Z" fill="white"/>
</svg>
