<svg width="19" height="19" viewBox="0 0 19 19" fill="none" xmlns="http://www.w3.org/2000/svg">
<path d="M18.7628 3.87407L15.052 0.163059C14.9476 0.0586328 14.806 0 14.6584 0H6.12305C5.20225 0 4.45312 0.749127 4.45312 1.66992V9.01157C1.95173 9.28937 0 11.416 0 13.9902C0 16.7526 2.24738 19 5.00977 19H17.2559C18.1767 19 18.9258 18.2509 18.9258 17.3301V4.26769C18.9258 4.12003 18.8671 3.9785 18.7628 3.87407ZM15.2148 1.90048L16.4242 3.10991L17.0253 3.71094H15.2148V1.90048ZM1.11328 13.9902C1.11328 11.8417 2.86124 10.0938 5.00977 10.0938C7.15829 10.0938 8.90625 11.8417 8.90625 13.9902C8.90625 16.1388 7.15829 17.8867 5.00977 17.8867C2.86124 17.8867 1.11328 16.1388 1.11328 13.9902ZM17.2559 17.8867H8.15475C9.15533 17.0775 9.83911 15.8918 9.98847 14.5469H15.7715C16.0789 14.5469 16.3281 14.2976 16.3281 13.9902C16.3281 13.6828 16.0789 13.4336 15.7715 13.4336H9.98843C9.89766 12.6164 9.60977 11.858 9.17321 11.207H15.7715C16.0789 11.207 16.3281 10.9578 16.3281 10.6504C16.3281 10.343 16.0789 10.0938 15.7715 10.0938H8.15475C7.43034 9.50794 6.54008 9.1197 5.56641 9.01157V1.66992C5.56641 1.36299 5.81612 1.11328 6.12305 1.11328H14.1016V4.26758C14.1016 4.57499 14.3508 4.82422 14.6582 4.82422H17.8125V17.3301C17.8125 17.637 17.5628 17.8867 17.2559 17.8867Z" fill="white"/>
<path d="M15.7715 6.75391H7.60742C7.30001 6.75391 7.05078 7.00313 7.05078 7.31055C7.05078 7.61796 7.30001 7.86719 7.60742 7.86719H15.7715C16.0789 7.86719 16.3281 7.61796 16.3281 7.31055C16.3281 7.00313 16.0789 6.75391 15.7715 6.75391Z" fill="white"/>
<path d="M7.22173 12.5947C7.00438 12.3774 6.65191 12.3774 6.43452 12.5947L4.23049 14.7987L3.51079 14.0791C3.29344 13.8617 2.94097 13.8617 2.72359 14.0791C2.5062 14.2964 2.5062 14.6489 2.72359 14.8663L3.83687 15.9795C3.94556 16.0882 4.08802 16.1426 4.23049 16.1426C4.37295 16.1426 4.51541 16.0882 4.62407 15.9795L7.22173 13.3819C7.43911 13.1645 7.43911 12.8121 7.22173 12.5947Z" fill="white"/>
</svg>
