<svg width="19" height="19" viewBox="0 0 19 19" fill="none" xmlns="http://www.w3.org/2000/svg">
<g clip-path="url(#clip0_6_102)">
<path d="M18.7999 3.87407L15.0891 0.163059C14.9847 0.0586328 14.8431 0 14.6955 0H6.16016C5.23936 0 4.49023 0.749127 4.49023 1.66992V9.01157C1.98884 9.28937 0.0371094 11.416 0.0371094 13.9902C0.0371094 16.7526 2.28449 19 5.04688 19H17.293C18.2138 19 18.9629 18.2509 18.9629 17.3301V4.26769C18.9629 4.12003 18.9043 3.9785 18.7999 3.87407ZM15.252 1.90048L16.4613 3.10991L17.0624 3.71094H15.252V1.90048ZM1.15039 13.9902C1.15039 11.8417 2.89835 10.0938 5.04688 10.0938C7.1954 10.0938 8.94336 11.8417 8.94336 13.9902C8.94336 16.1388 7.1954 17.8867 5.04688 17.8867C2.89835 17.8867 1.15039 16.1388 1.15039 13.9902ZM17.293 17.8867H8.19186C9.19244 17.0775 9.87621 15.8918 10.0256 14.5469H15.8086C16.116 14.5469 16.3652 14.2976 16.3652 13.9902C16.3652 13.6828 16.116 13.4336 15.8086 13.4336H10.0255C9.93477 12.6164 9.64688 11.858 9.21032 11.207H15.8086C16.116 11.207 16.3652 10.9578 16.3652 10.6504C16.3652 10.343 16.116 10.0938 15.8086 10.0938H8.19186C7.46744 9.50794 6.57719 9.1197 5.60352 9.01157V1.66992C5.60352 1.36299 5.85322 1.11328 6.16016 1.11328H14.1387V4.26758C14.1387 4.57499 14.3879 4.82422 14.6953 4.82422H17.8496V17.3301C17.8496 17.637 17.5999 17.8867 17.293 17.8867Z" fill="#344054"/>
<path d="M15.8086 6.75391H7.64453C7.33712 6.75391 7.08789 7.00313 7.08789 7.31055C7.08789 7.61796 7.33712 7.86719 7.64453 7.86719H15.8086C16.116 7.86719 16.3652 7.61796 16.3652 7.31055C16.3652 7.00313 16.116 6.75391 15.8086 6.75391Z" fill="#344054"/>
<path d="M7.25884 12.5947C7.04149 12.3774 6.68902 12.3774 6.47163 12.5947L4.2676 14.7987L3.5479 14.0791C3.33055 13.8617 2.97808 13.8617 2.7607 14.0791C2.54331 14.2964 2.54331 14.6489 2.7607 14.8663L3.87398 15.9795C3.98267 16.0882 4.12513 16.1426 4.2676 16.1426C4.41006 16.1426 4.55252 16.0882 4.66118 15.9795L7.25884 13.3819C7.47622 13.1645 7.47622 12.8121 7.25884 12.5947Z" fill="#344054"/>
</g>
<defs>
<clipPath id="clip0_6_102">
<rect width="19" height="19" fill="white"/>
</clipPath>
</defs>
</svg>
