<svg width="21" height="21" viewBox="0 0 21 21" fill="none" xmlns="http://www.w3.org/2000/svg">
<g clip-path="url(#clip0_6_241)">
<path d="M19.0207 1.97929C16.3816 -0.659782 12.0876 -0.659741 9.44848 1.97929C7.64601 3.78176 7.02011 6.43871 7.80027 8.84871L0.180264 16.4688C0.0648457 16.5841 0 16.7406 0 16.9038V20.3847C0 20.7245 0.275502 21 0.615316 21H4.09615C4.25939 21 4.41582 20.9352 4.53128 20.8197L5.40164 19.9494C5.53457 19.8164 5.59945 19.63 5.57771 19.4432L5.46911 18.5087L6.76454 18.3866C7.05871 18.3589 7.29168 18.126 7.3194 17.8318L7.44159 16.5362L8.37613 16.6448C8.55061 16.6652 8.72525 16.6099 8.85642 16.4932C8.98751 16.3764 9.06253 16.2092 9.06253 16.0336V14.8877H10.1876C10.3496 14.8877 10.505 14.8239 10.6202 14.71L12.1489 13.1989C14.5595 13.9803 17.2177 13.3545 19.0208 11.5515C21.6597 8.91244 21.6597 4.61831 19.0207 1.97929ZM18.1505 10.6813C16.5974 12.2344 14.2677 12.7191 12.2154 11.9165C11.9889 11.8279 11.7316 11.881 11.5587 12.0519L9.9348 13.6571H8.44717C8.10735 13.6571 7.83185 13.9326 7.83185 14.2724V15.3426L6.95904 15.2412C6.79461 15.2221 6.62948 15.27 6.50081 15.3741C6.37219 15.4783 6.29089 15.6298 6.27535 15.7946L6.14193 17.2092L4.72746 17.3425C4.56266 17.3581 4.41111 17.4393 4.30693 17.568C4.20279 17.6966 4.15484 17.8618 4.17395 18.0262L4.32087 19.2896L3.84124 19.7694H1.23059V17.1588L8.94551 9.44388C9.11835 9.27104 9.17253 9.01228 9.08348 8.78464C8.28073 6.7323 8.76557 4.40269 10.3186 2.84956C12.4779 0.690329 15.9913 0.690329 18.1505 2.84956C20.3097 5.00874 20.3097 8.5221 18.1505 10.6813Z" fill="#344054"/>
<path d="M17.2803 3.71969C16.5606 2.99991 15.3894 2.99995 14.6697 3.71969C13.9499 4.43943 13.9499 5.61055 14.6697 6.3303C15.3894 7.05004 16.5606 7.05012 17.2803 6.3303C18 5.61055 18 4.43943 17.2803 3.71969ZM16.4101 5.46011C16.1702 5.70001 15.7799 5.70005 15.5399 5.46011C15.3 5.22021 15.3 4.82986 15.5399 4.58992C15.7805 4.34941 16.1696 4.34941 16.4101 4.58992C16.6506 4.83044 16.6506 5.21959 16.4101 5.46011Z" fill="#344054"/>
</g>
<defs>
<clipPath id="clip0_6_241">
<rect width="21" height="21" fill="white"/>
</clipPath>
</defs>
</svg>
