<svg width="92" height="92" viewBox="0 0 92 92" fill="none" xmlns="http://www.w3.org/2000/svg">
<rect opacity="0.1" width="92" height="92" rx="25.8049" fill="#3AADFF"/>
<g clip-path="url(#clip0_12_747)">
<path d="M78.4199 29.0487L74.5527 25.1815C74.2048 24.7949 73.702 24.6016 73.1992 24.6016H46.7605C44.3241 17.7178 37.7887 13 30.4023 13C20.8118 13 13 20.8116 13 30.4023C13 39.9928 20.8118 47.8047 30.4023 47.8047C37.7885 47.8047 44.3241 43.0866 46.7604 36.2031H53.051L56.3771 39.4901C57.1118 40.2635 58.3492 40.2635 59.084 39.4901L61.2111 37.402L63.6858 39.9155C64.4592 40.6503 65.6969 40.6503 66.4316 39.9155L69.9122 36.4352L73.3538 36.2031C73.8178 36.1645 74.2434 35.9711 74.5526 35.6229L78.4198 31.7557C79.1934 31.021 79.1934 29.7835 78.4199 29.0487ZM30.4023 36.2031C27.1924 36.2031 24.6016 33.612 24.6016 30.4023C24.6016 27.1926 27.1924 24.6016 30.4023 24.6016C33.6121 24.6016 36.2031 27.1926 36.2031 30.4023C36.2031 33.612 33.6122 36.2031 30.4023 36.2031Z" fill="url(#paint0_linear_12_747)"/>
<path d="M39.5039 56.1056L32.3359 48.9376V33.8484C32.3359 32.7796 31.4711 31.9148 30.4023 31.9148C29.3336 31.9148 28.4688 32.7796 28.4688 33.8484V48.9376L21.3009 56.1055C20.9383 56.4681 20.7344 56.9591 20.7344 57.4727V77.0664C20.7344 78.1352 21.5992 79 22.668 79H38.1367C39.2055 79 40.0703 78.1352 40.0703 77.0664V57.4727C40.0703 56.9591 39.8664 56.4681 39.5039 56.1056Z" fill="url(#paint1_linear_12_747)"/>
</g>
<defs>
<linearGradient id="paint0_linear_12_747" x1="46" y1="47.8047" x2="46" y2="13" gradientUnits="userSpaceOnUse">
<stop stop-color="#5558FF"/>
<stop offset="1" stop-color="#00C0FF"/>
</linearGradient>
<linearGradient id="paint1_linear_12_747" x1="30.4023" y1="79" x2="30.4023" y2="31.9148" gradientUnits="userSpaceOnUse">
<stop stop-color="#ADDCFF"/>
<stop offset="0.5028" stop-color="#EAF6FF"/>
<stop offset="1" stop-color="#EAF6FF"/>
</linearGradient>
<clipPath id="clip0_12_747">
<rect width="66" height="66" fill="white" transform="translate(13 13)"/>
</clipPath>
</defs>
</svg>
