<svg width="22" height="22" viewBox="0 0 22 22" fill="none" xmlns="http://www.w3.org/2000/svg">
<g clip-path="url(#clip0_6_249)">
<path d="M19.1194 0.6875H2.88064C2.59263 0.6875 2.30745 0.744227 2.04136 0.854442C1.77528 0.964657 1.53351 1.1262 1.32986 1.32985C0.918572 1.74114 0.687511 2.29897 0.687511 2.88063V9.625C0.686988 9.71548 0.704331 9.80517 0.738544 9.88894C0.772757 9.9727 0.823168 10.0489 0.886886 10.1131L1.78064 11L0.886886 11.8869C0.823168 11.9511 0.772757 12.0273 0.738544 12.1111C0.704331 12.1948 0.686988 12.2845 0.687511 12.375V16.3694C0.687511 16.951 0.918572 17.5089 1.32986 17.9201C1.53351 18.1238 1.77528 18.2853 2.04136 18.3956C2.30745 18.5058 2.59263 18.5625 2.88064 18.5625H4.12501C4.30735 18.5625 4.48222 18.4901 4.61115 18.3611C4.74008 18.2322 4.81251 18.0573 4.81251 17.875C4.81251 17.6927 4.74008 17.5178 4.61115 17.3889C4.48222 17.2599 4.30735 17.1875 4.12501 17.1875H2.88064C2.7732 17.1875 2.66681 17.1663 2.56755 17.1252C2.46829 17.0841 2.3781 17.0238 2.30213 16.9479C2.14871 16.7944 2.06251 16.5864 2.06251 16.3694V12.6569L3.23814 11.4881C3.30257 11.4242 3.35372 11.3482 3.38862 11.2644C3.42353 11.1806 3.4415 11.0908 3.4415 11C3.4415 10.9092 3.42353 10.8194 3.38862 10.7356C3.35372 10.6518 3.30257 10.5758 3.23814 10.5119L2.06251 9.34313V6.1875H19.9375V16.3694C19.9375 16.5864 19.8513 16.7944 19.6979 16.9479C19.5445 17.1013 19.3364 17.1875 19.1194 17.1875H17.875C17.6927 17.1875 17.5178 17.2599 17.3889 17.3889C17.2599 17.5178 17.1875 17.6927 17.1875 17.875C17.1875 18.0573 17.2599 18.2322 17.3889 18.3611C17.5178 18.4901 17.6927 18.5625 17.875 18.5625H19.1194C19.4074 18.5625 19.6926 18.5058 19.9587 18.3956C20.2247 18.2853 20.4665 18.1238 20.6702 17.9201C20.8738 17.7165 21.0354 17.4747 21.1456 17.2086C21.2558 16.9426 21.3125 16.6574 21.3125 16.3694V2.88063C21.3125 2.59262 21.2558 2.30743 21.1456 2.04135C21.0354 1.77527 20.8738 1.5335 20.6702 1.32985C20.4665 1.1262 20.2247 0.964657 19.9587 0.854442C19.6926 0.744227 19.4074 0.6875 19.1194 0.6875ZM2.06251 4.8125V2.88063C2.06251 2.77319 2.08367 2.6668 2.12479 2.56754C2.1659 2.46828 2.22616 2.37809 2.30213 2.30212C2.45556 2.1487 2.66366 2.0625 2.88064 2.0625H19.1194C19.2268 2.0625 19.3332 2.08366 19.4325 2.12478C19.5317 2.16589 19.6219 2.22615 19.6979 2.30212C19.7739 2.37809 19.8341 2.46828 19.8752 2.56754C19.9163 2.6668 19.9375 2.77319 19.9375 2.88063V4.8125H2.06251Z" fill="#344054"/>
<path d="M4.125 4.125C4.5047 4.125 4.8125 3.8172 4.8125 3.4375C4.8125 3.0578 4.5047 2.75 4.125 2.75C3.7453 2.75 3.4375 3.0578 3.4375 3.4375C3.4375 3.8172 3.7453 4.125 4.125 4.125Z" fill="#344054"/>
<path d="M6.875 4.125C7.2547 4.125 7.5625 3.8172 7.5625 3.4375C7.5625 3.0578 7.2547 2.75 6.875 2.75C6.4953 2.75 6.1875 3.0578 6.1875 3.4375C6.1875 3.8172 6.4953 4.125 6.875 4.125Z" fill="#344054"/>
<path d="M9.625 4.125C10.0047 4.125 10.3125 3.8172 10.3125 3.4375C10.3125 3.0578 10.0047 2.75 9.625 2.75C9.2453 2.75 8.9375 3.0578 8.9375 3.4375C8.9375 3.8172 9.2453 4.125 9.625 4.125Z" fill="#344054"/>
<path d="M15.8125 15.125C15.6302 15.125 15.4553 15.1974 15.3264 15.3264C15.1974 15.4553 15.125 15.6302 15.125 15.8125C15.1258 16.7656 14.7965 17.6896 14.1931 18.4274C13.5897 19.1652 12.7494 19.6713 11.815 19.8596C10.8807 20.048 9.90998 19.9069 9.06787 19.4605C8.22576 19.014 7.56424 18.2897 7.19575 17.4107C6.82726 16.5317 6.77454 15.5522 7.04656 14.6387C7.31858 13.7252 7.89855 12.9341 8.68788 12.3999C9.47721 11.8656 10.4272 11.6212 11.3764 11.7082C12.3255 11.7951 13.2153 12.2081 13.8944 12.8769H13.0625C12.8802 12.8769 12.7053 12.9493 12.5764 13.0782C12.4474 13.2072 12.375 13.382 12.375 13.5644C12.375 13.7467 12.4474 13.9216 12.5764 14.0505C12.7053 14.1794 12.8802 14.2519 13.0625 14.2519H15.4825C15.6648 14.2519 15.8397 14.1794 15.9686 14.0505C16.0976 13.9216 16.17 13.7467 16.17 13.5644V11C16.17 10.8177 16.0976 10.6428 15.9686 10.5139C15.8397 10.3849 15.6648 10.3125 15.4825 10.3125C15.3002 10.3125 15.1253 10.3849 14.9964 10.5139C14.8674 10.6428 14.795 10.8177 14.795 11V11.8319C13.8781 10.9578 12.6875 10.427 11.4244 10.3292C10.1614 10.2315 8.90332 10.5727 7.86279 11.2953C6.82226 12.0179 6.06308 13.0776 5.71353 14.2952C5.36397 15.5128 5.44547 16.8138 5.94425 17.9783C6.44304 19.1428 7.32852 20.0994 8.45109 20.6865C9.57366 21.2736 10.8645 21.4552 12.1055 21.2006C13.3464 20.946 14.4615 20.2708 15.2621 19.289C16.0628 18.3073 16.5001 17.0793 16.5 15.8125C16.5 15.6302 16.4276 15.4553 16.2986 15.3264C16.1697 15.1974 15.9948 15.125 15.8125 15.125Z" fill="#344054"/>
</g>
<defs>
<clipPath id="clip0_6_249">
<rect width="22" height="22" fill="white"/>
</clipPath>
</defs>
</svg>
