<svg width="597" height="168" viewBox="0 0 597 168" fill="none" xmlns="http://www.w3.org/2000/svg">
<mask id="mask0_2020_67" style="mask-type:alpha" maskUnits="userSpaceOnUse" x="0" y="0" width="597" height="168">
<path d="M9.99999 168C4.47714 168 -1.95703e-07 163.523 -4.37114e-07 158L-6.9064e-06 10C-7.14781e-06 4.47717 4.47715 3.03219e-05 9.99999 3.00805e-05L587 4.85899e-06C592.523 4.61758e-06 597 4.47715 597 10L597 158C597 163.523 592.523 168 587 168L9.99999 168Z" fill="#4A3AFF"/>
</mask>
<g mask="url(#mask0_2020_67)">
<path opacity="0.2" d="M9.99999 168C4.47714 168 -1.95703e-07 163.523 -4.37114e-07 158L-6.9064e-06 10C-7.14781e-06 4.47717 4.47715 3.03219e-05 9.99999 3.00805e-05L587 4.85899e-06C592.523 4.61758e-06 597 4.47715 597 10L597 158C597 163.523 592.523 168 587 168L9.99999 168Z" fill="#3AADFF"/>
<g filter="url(#filter0_d_2020_67)">
<path d="M263.958 35.7822C263.958 30.2594 268.435 25.7822 273.958 25.7822L408.395 25.7822C413.918 25.7822 418.395 30.2593 418.395 35.7822L418.395 252.558L263.958 252.558L263.958 35.7822Z" fill="#FF0000" fill-opacity="0.01"/>
</g>
<path d="M265.175 35.7299C265.175 30.207 269.652 25.7299 275.175 25.7299L408.411 25.7299C413.934 25.7299 418.411 30.207 418.411 35.7299L418.411 245.021L265.175 245.021L265.175 35.7299Z" fill="white"/>
<path opacity="0.1" d="M277.399 155.783C277.399 150.26 281.876 145.783 287.399 145.783L396.188 145.783C401.711 145.783 406.188 150.26 406.188 155.783L406.188 248.907L277.399 248.907L277.399 155.783Z" fill="#13AAFF"/>
<path d="M260.008 63.5888C260.008 59.3946 263.408 55.9946 267.602 55.9946L394.08 55.9946C398.274 55.9946 401.674 59.3946 401.674 63.5888L260.008 63.5888Z" fill="#708FA8"/>
<path opacity="0.6" d="M270.6 88.1097C270.6 83.9155 274 80.5155 278.194 80.5155L362.954 80.5155C367.148 80.5155 370.548 83.9155 370.548 88.1097L270.6 88.1097Z" fill="#B3C2D0"/>
<path opacity="0.6" d="M270.6 119.363C270.6 115.169 274 111.769 278.194 111.769L375.802 111.769C379.996 111.769 383.396 115.169 383.396 119.363L270.6 119.363Z" fill="#B3C2D0"/>
<path opacity="0.6" d="M270.6 103.736C270.6 99.5423 274 96.1422 278.194 96.1422L390.765 96.1422C394.959 96.1422 398.359 99.5423 398.359 103.736L270.6 103.736Z" fill="#B3C2D0"/>
<path opacity="0.6" d="M270.6 134.99C270.6 130.796 274 127.396 278.194 127.396L390.27 127.396C394.464 127.396 397.864 130.796 397.864 134.99L270.6 134.99Z" fill="#B3C2D0"/>
<g filter="url(#filter1_d_2020_67)">
<path d="M176.688 22.7107C176.688 17.1878 181.166 12.7107 186.688 12.7107L315.418 12.7107C320.94 12.7107 325.418 17.1878 325.418 22.7107L325.418 238.934L176.688 238.934L176.688 22.7107Z" fill="#FF0000" fill-opacity="0.01"/>
</g>
<mask id="mask1_2020_67" style="mask-type:alpha" maskUnits="userSpaceOnUse" x="176" y="12" width="150" height="227">
<path d="M176.687 22.7103C176.687 17.1874 181.164 12.7103 186.687 12.7103L315.416 12.7103C320.939 12.7103 325.416 17.1874 325.416 22.7103L325.416 238.933L176.687 238.933L176.687 22.7103Z" fill="white"/>
</mask>
<g mask="url(#mask1_2020_67)">
<path d="M176.688 22.7107C176.688 17.1878 181.166 12.7107 186.688 12.7107L315.418 12.7107C320.94 12.7107 325.418 17.1878 325.418 22.7107L325.418 238.934L176.688 238.934L176.688 22.7107Z" fill="white"/>
<path d="M176.645 22.7166C176.645 17.1937 181.122 12.7166 186.645 12.7166L315.465 12.7166C320.988 12.7166 325.465 17.1937 325.465 22.7166L325.465 133.364L176.645 133.364L176.645 22.7166Z" fill="#0096EA"/>
<mask id="mask2_2020_67" style="mask-type:alpha" maskUnits="userSpaceOnUse" x="176" y="12" width="150" height="122">
<path d="M176.645 22.7166C176.645 17.1937 181.122 12.7166 186.645 12.7166L315.465 12.7166C320.988 12.7166 325.465 17.1937 325.465 22.7166L325.465 123.364C325.465 128.887 320.988 133.364 315.465 133.364L186.645 133.364C181.122 133.364 176.645 128.887 176.645 123.364L176.645 22.7166Z" fill="#4B64FF"/>
</mask>
<g mask="url(#mask2_2020_67)">
<path d="M259.617 64.5471C263.818 60.9611 269.95 61.6048 273.314 65.9847L323.916 131.866C327.28 136.246 326.602 142.704 322.402 146.29L249.954 208.142L187.17 126.4L259.617 64.5471Z" fill="white" fill-opacity="0.25"/>
<path d="M219.622 79.0582C223.822 75.4722 229.954 76.1159 233.318 80.4959L264.841 121.536C268.205 125.916 267.527 132.374 263.327 135.96L204.772 185.951L161.068 129.049L219.622 79.0582Z" fill="white" fill-opacity="0.11"/>
<path d="M298.808 55.1286C303.009 51.5426 309.141 52.1862 312.505 56.5662L356.473 113.811C359.837 118.191 359.159 124.648 354.959 128.234L276.291 195.398L220.14 122.292L298.808 55.1286Z" fill="white" fill-opacity="0.47"/>
</g>
</g>
<path d="M188.125 153.415C188.125 149.221 191.525 145.821 195.719 145.821L233.976 145.821C238.171 145.821 241.571 149.221 241.571 153.415L188.125 153.415Z" fill="#708FA8"/>
<path d="M187.768 168.657C187.768 164.462 191.168 161.062 195.362 161.062L293.722 161.062C297.916 161.062 301.316 164.462 301.316 168.657L187.768 168.657Z" fill="#C2D0DB"/>
</g>
<defs>
<filter id="filter0_d_2020_67" x="234.879" y="8.67707" width="212.595" height="284.933" filterUnits="userSpaceOnUse" color-interpolation-filters="sRGB">
<feFlood flood-opacity="0" result="BackgroundImageFix"/>
<feColorMatrix in="SourceAlpha" type="matrix" values="0 0 0 0 0 0 0 0 0 0 0 0 0 0 0 0 0 0 127 0" result="hardAlpha"/>
<feOffset dy="11.9736"/>
<feGaussianBlur stdDeviation="14.5394"/>
<feColorMatrix type="matrix" values="0 0 0 0 0.290196 0 0 0 0 0.227451 0 0 0 0 1 0 0 0 0.15 0"/>
<feBlend mode="normal" in2="BackgroundImageFix" result="effect1_dropShadow_2020_67"/>
<feBlend mode="normal" in="SourceGraphic" in2="effect1_dropShadow_2020_67" result="shape"/>
</filter>
<filter id="filter1_d_2020_67" x="147.61" y="-4.39446" width="206.886" height="284.38" filterUnits="userSpaceOnUse" color-interpolation-filters="sRGB">
<feFlood flood-opacity="0" result="BackgroundImageFix"/>
<feColorMatrix in="SourceAlpha" type="matrix" values="0 0 0 0 0 0 0 0 0 0 0 0 0 0 0 0 0 0 127 0" result="hardAlpha"/>
<feOffset dy="11.9736"/>
<feGaussianBlur stdDeviation="14.5394"/>
<feColorMatrix type="matrix" values="0 0 0 0 0.290196 0 0 0 0 0.227451 0 0 0 0 1 0 0 0 0.15 0"/>
<feBlend mode="normal" in2="BackgroundImageFix" result="effect1_dropShadow_2020_67"/>
<feBlend mode="normal" in="SourceGraphic" in2="effect1_dropShadow_2020_67" result="shape"/>
</filter>
</defs>
</svg>
